<svg id="Graphic_elements" data-name="Graphic elements" xmlns="http://www.w3.org/2000/svg" viewBox="0 0 1200 1200"><defs><style>.cls-1{fill:#ea893e;}.cls-2{fill:#f7c340;}.cls-3{fill:#1a1919;}</style></defs><path class="cls-1" d="M245,351.85c-10.46,6-20.94,12.78-31.86,15.89-25.13,7.2-52.86,3.76-78.78,6.1C69,379.66,131.19,460.59,169,464c0,0,57.92,19.25,101.94,13.1A270.23,270.23,0,0,1,245,351.85Z"/><path class="cls-2" d="M1079.58,550.12S813.93,773,703.4,556.57a269.65,269.65,0,0,0,83.21-185.4c5.69-149.59-111.05-275.34-260.72-281S250.67,201.37,245,350.89c0,.32,0,.64,0,1A271.21,271.21,0,0,0,351.69,576.63c-6.82,5.67-13.91,11.49-21.46,17.55-148.36,119.08-137.48,428.13,117.4,486.63,0,0,219.37,69.65,438-6.22C1101.61,999.56,1114,814.4,1079.58,550.12ZM319.86,321.87A33.59,33.59,0,1,1,352,356.73,33.54,33.54,0,0,1,319.86,321.87Zm413.87,680.55C651.2,1017.84,593.4,1011,515,980.13c-36.28-14.25-72.57-35.44-94.08-68.75-83.45-128.73,27.6-295.76,158.35-261,57.79,15.36,97.57,66.34,155.75,82,67.64,18.34,125,29.42,188.54-8.09C930.44,749.74,931.21,965.68,733.73,1002.42Z"/><path class="cls-1" d="M735,732.37c-58.18-15.62-98-66.6-155.75-82-130.75-34.79-241.8,132.24-158.35,261,21.51,33.31,57.8,54.5,94.08,68.75,78.39,30.9,136.19,37.71,218.72,22.29,197.48-36.74,196.71-252.68,189.84-278.14C860.07,761.79,802.67,750.71,735,732.37Z"/><path class="cls-3" d="M387,324.46a33.59,33.59,0,1,0-35,32.27A33.69,33.69,0,0,0,387,324.46Z"/></svg>