<svg id="Graphic_Elements" data-name="Graphic Elements" xmlns="http://www.w3.org/2000/svg" viewBox="0 0 1200 1200"><defs><style>.cls-1{fill:#faca22;}.cls-2,.cls-5{fill-opacity:0;stroke:#5f4a3e;stroke-linecap:round;stroke-width:4.8px;}.cls-2{stroke-linejoin:round;}.cls-3{fill:#fffffe;}.cls-4{fill:#ad2e3d;}.cls-6{fill:#5f4a3e;}.cls-7{fill:#eb9073;}</style></defs><g id="Layer_1" data-name="Layer 1"><path class="cls-1" d="M492,1085.35s54.59-72,43.68-146.3-41.49-21.83-41.49-21.83,19.66,113.54-13.1,150.66S492,1085.35,492,1085.35"/><path class="cls-2" d="M492,1085.35s54.59-72,43.68-146.3-41.49-21.83-41.49-21.83,19.66,113.54-13.1,150.66S492,1085.35,492,1085.35Z"/><path class="cls-1" d="M504.17,983.34s21.71-10.56,26.67,5"/><path class="cls-2" d="M504.17,983.34s21.71-10.56,26.67,5"/><path class="cls-1" d="M499.82,1012.5s25.44-7.45,26.68,5"/><path class="cls-2" d="M499.82,1012.5s25.44-7.45,26.68,5"/><path class="cls-1" d="M501.06,1029.25s15.51-5,16.75,7.44"/><path class="cls-2" d="M501.06,1029.25s15.51-5,16.75,7.44"/><path class="cls-1" d="M680.65,1116.37s54.59-72.06,43.68-146.29-41.49-21.84-41.49-21.84,19.65,113.54-13.1,150.66,10.91,17.47,10.91,17.47"/><path class="cls-2" d="M680.65,1116.37s54.59-72.06,43.68-146.29-41.49-21.84-41.49-21.84,19.65,113.54-13.1,150.66S680.65,1116.37,680.65,1116.37Z"/><path class="cls-1" d="M692.78,1014.36s21.72-10.55,26.68,5"/><path class="cls-2" d="M692.78,1014.36s21.72-10.55,26.68,5"/><path class="cls-1" d="M688.43,1043.52s25.45-7.45,26.69,5"/><path class="cls-2" d="M688.43,1043.52s25.45-7.45,26.69,5"/><path class="cls-1" d="M689.67,1060.26s15.51-5,16.75,7.45"/><path class="cls-2" d="M689.67,1060.26s15.51-5,16.75,7.45"/><path class="cls-3" d="M474.65,526.52S248.08,416.77,244.54,353,127.71,381.37,212.67,477s39,53.11,39,53.11-53.12-60.18-85-14.16S152.48,618.57,237.46,615c82.8-3.46-31.86-25.28-31.86,88.5,0,60.19,109.73,109.75,201.8,70.81"/><path class="cls-2" d="M474.65,526.52S248.08,416.77,244.54,353,127.71,381.37,212.67,477s39,53.11,39,53.11-53.12-60.18-85-14.16S152.48,618.57,237.46,615c82.8-3.46-31.86-25.28-31.86,88.5,0,60.19,109.73,109.75,201.8,70.81"/><path class="cls-4" d="M577.33,117.62a43.87,43.87,0,0,0-23.42,7C549.33,82.45,522,50,488.81,50c-27.93,0-51.74,23-61.31,55.5-1.39-.13-2.77-.28-4.19-.28-30.3,0-54.87,32.5-54.87,72.58s24.57,72.58,54.87,72.58c18.49,0,34.82-12.14,44.76-30.68a51.3,51.3,0,0,0,20.74,4.48c13.21,0,25.48-5.19,35.79-14,6.55,30.37,27.65,52.63,52.73,52.63,30.29,0,54.87-32.49,54.87-72.58s-24.58-72.57-54.87-72.57"/><path class="cls-5" d="M577.33,117.62a43.87,43.87,0,0,0-23.42,7C549.33,82.45,522,50,488.81,50c-27.93,0-51.74,23-61.31,55.5-1.39-.13-2.77-.28-4.19-.28-30.3,0-54.87,32.5-54.87,72.58s24.57,72.58,54.87,72.58c18.49,0,34.82-12.14,44.76-30.68a51.3,51.3,0,0,0,20.74,4.48c13.21,0,25.48-5.19,35.79-14,6.55,30.37,27.65,52.63,52.73,52.63,30.29,0,54.87-32.49,54.87-72.58S607.62,117.62,577.33,117.62Z"/><path class="cls-3" d="M1048.17,639.8c0,191.62-224.07,350.5-400.05,350.5S318.87,881,318.87,689.37s110.8-286.76,286.77-286.76c79.92,0,140,110.71,208.87,145.15,134.54,67.27,233.66-12.55,233.66,92"/><path class="cls-2" d="M1048.17,639.8c0,191.62-224.07,350.5-400.05,350.5S318.87,881,318.87,689.37s110.8-286.76,286.77-286.76c79.92,0,140,110.71,208.87,145.15C949.05,615,1048.17,535.21,1048.17,639.8Z"/><path class="cls-3" d="M669.37,370.75c0,105.58-85.59,191.17-191.18,191.17S287,476.33,287,370.75,372.6,179.57,478.19,179.57s191.18,85.59,191.18,191.18"/><path class="cls-2" d="M669.37,370.75c0,105.58-85.59,191.17-191.18,191.17S287,476.33,287,370.75,372.6,179.57,478.19,179.57,669.37,265.16,669.37,370.75Z"/><path class="cls-3" d="M650.83,494.9S870.34,417,923.44,346.2s99.13,24.78,74.34,77.89S941.14,502,941.14,502s77.89-53.1,99.14-24.78-3.55,123.91-70.82,152.23,56.64-7.07,53.12,49.57-60.2,113.29-205.34,77.89"/><path class="cls-2" d="M650.83,494.9S870.34,417,923.44,346.2s99.13,24.78,74.34,77.89S941.14,502,941.14,502s77.89-53.1,99.14-24.78-3.55,123.91-70.82,152.23,56.64-7.07,53.12,49.57-60.2,113.29-205.34,77.89"/><path class="cls-6" d="M416.06,372.24c0,23.32,13.92,42.2,31.09,42.2s31.14-18.88,31.14-42.2S464.35,330,447.15,330s-31.09,18.9-31.09,42.22"/><path class="cls-1" d="M604.58,1102.32s-34.09-34.51-42.79-15.3,36.68,19.17,65.84,28.47c24.66,7.87-23-13.17-23-13.17"/><path class="cls-2" d="M604.58,1102.32s-34.09-34.51-42.79-15.3,36.68,19.17,65.84,28.47C652.29,1123.36,604.58,1102.32,604.58,1102.32Z"/><path class="cls-1" d="M702.08,1080.12c-15.28,37.12-32.35,99.56-76,53.71s-102.62-113.54-69.86-115.72,39.29,43.67,39.29,43.67-45.85-126.65,2.19-111.35,30.57,100.43,30.57,100.43-12.66-66.55,19.87-60.56,17.24,91.13,17.24,91.13"/><path class="cls-2" d="M702.08,1080.12c-15.28,37.12-32.35,99.56-76,53.71s-102.62-113.54-69.86-115.72,39.29,43.67,39.29,43.67-45.85-126.65,2.19-111.35,30.57,100.43,30.57,100.43-12.66-66.55,19.87-60.56,17.24,91.13,17.24,91.13"/><path class="cls-4" d="M329.12,494.09s-65.5,48-21.84,80.78S346.58,529,346.58,529s-32.76,56.77,6.56,67.69,32.75-48,13.1-107-37.12,4.37-37.12,4.37"/><path class="cls-5" d="M329.12,494.09s-65.5,48-21.84,80.78S346.58,529,346.58,529s-32.76,56.77,6.56,67.69,32.75-48,13.1-107S329.12,494.09,329.12,494.09Z"/><path class="cls-7" d="M228,415.54,279.79,461l-19.08,28.18s89.05,10,104.51-24.54S369.77,342.83,228,415.54"/><path class="cls-2" d="M228,415.54,279.79,461l-19.08,28.18s89.05,10,104.51-24.54S369.77,342.83,228,415.54Z"/><path class="cls-1" d="M389.77,448.26s14.54-66.36-54.54-75.44-110.88,40.9-110.88,40.9,40,57.26,112.7,41.81c19.09-8.18,21.81-8.18,21.81-8.18s-41.8,31.81-98.15,41.81c-2.74.91,95.43,59.08,129.06-40.9"/><path class="cls-2" d="M389.77,448.26s14.54-66.36-54.54-75.44-110.88,40.9-110.88,40.9,40,57.26,112.7,41.81c19.09-8.18,21.81-8.18,21.81-8.18s-41.8,31.81-98.15,41.81C258,490.07,356.14,548.24,389.77,448.26ZM352.5,451c1.82-3.63,42.72-9.08,36.36-38.17"/><path class="cls-1" d="M513.47,1049.1c-15.29,37.12-32.35,99.56-76,53.72S334.83,989.28,367.58,987.09s39.3,43.67,39.3,43.67S361,904.12,409.06,919.4s30.57,100.45,30.57,100.45S427,953.3,459.5,959.28s17.26,91.13,17.26,91.13,11.89-25.5,21.81-16.2S480,1068.33,480,1068.33"/><path class="cls-2" d="M513.47,1049.1c-15.29,37.12-32.35,99.56-76,53.72S334.83,989.28,367.58,987.09s39.3,43.67,39.3,43.67S361,904.12,409.06,919.4s30.57,100.45,30.57,100.45S427,953.3,459.5,959.28s17.26,91.13,17.26,91.13,11.89-25.5,21.81-16.2S480,1068.33,480,1068.33"/><path class="cls-3" d="M363.28,660.8s-29.63,106.14,27.14,118.48c24.69,7.4,34.56-32.09,34.56-32.09s-22.22,88.87,46.9,98.73,49.37-81.45,49.37-81.45"/><path class="cls-2" d="M363.28,660.8s-29.63,106.14,27.14,118.48c24.69,7.4,34.56-32.09,34.56-32.09s-22.22,88.87,46.9,98.73,49.37-81.45,49.37-81.45"/></g></svg>